<svg version="1.0" xmlns="http://www.w3.org/2000/svg" width="450.667" height="450.667" viewBox="0 0 500 500"><path d="M281.4 110.4c-8.5 1.6-13.6 3.8-22.9 9.8-6.7 4.4-14.9 12.1-17.2 16.2-.9 1.7-1.3 1.7-4.9.5-2.6-.9-8.7-1.4-17.9-1.4-11.7 0-15.1.4-21.1 2.2-9.3 3-11.4 4.7-12.5 10.7-1 5.6-2.4 7.6-5 7.6-2.8 0-3 1.4-1.2 6.9 1.2 3.8 1.3 5.7.6 7.4-.6 1.2-6.2 8.4-12.4 16.1-6.3 7.6-12.9 15.9-14.8 18.5-1.9 2.5-4.9 6.4-6.8 8.5-2 2.4-3.3 5-3.3 6.7 0 2.9 2.6 13.8 3.5 14.7.9.9 32.7 9.2 41 10.7 7.7 1.4 42.8 7.1 49 8 1.7.2 11.2 1.8 21.2 3.6 10 1.7 19.3 2.9 20.6 2.5 2.3-.5 11.9-13.1 30.2-39.4 4.3-6.2 8.6-11.7 9.4-12.1.9-.5 6-1.2 11.3-1.6 5.3-.4 10.4-1.2 11.2-1.8 1.4-1.1 1.4-1.5.1-4.1-.8-1.5-1.5-4-1.5-5.5 0-2.3-1.3-4.9-5.2-10.3-1.1-1.5-.9-2 .9-3.3 2.1-1.5 2.1-1.5-5.1-15.7-4-7.9-9.3-17.9-11.9-22.4-2.5-4.5-6.6-12.8-9.1-18.5-7.3-16.6-6.3-15.4-13.1-15.6-3.3-.1-9.2.4-13.1 1.1zm22.1 11.1c2.2 5.6 7.5 16.4 11.7 24 14.3 26.4 17.9 33.8 17.1 34.6-.4.4-6.9 2.6-14.3 5-14.2 4.5-28.8 11.5-37.9 18.2-4.1 3-5.6 3.7-5.9 2.6-.3-.8-4.5-9.3-9.4-18.9-5-9.6-10.6-21.3-12.4-26-1.9-4.7-5-11.3-6.9-14.8-1.9-3.4-3.5-6.7-3.5-7.3 0-.6 2.6-3.7 5.7-7 5.6-5.9 16.3-13.3 23.4-16.3 5-2.1 18.4-4.5 23.8-4.3l4.4.2 4.2 10zm-70.3 16.9c3.1.8 6.1 1.7 6.7 2.1 1.5.9 6.3 10.5 10.2 20.2 1.7 4.3 7.3 16.1 12.5 26.2 5.2 10.1 9.4 18.7 9.4 19.1 0 .4-1.8.1-4-.6-12-4.2-31.5-3.5-46.5 1.5-4.7 1.6-8.7 2.6-8.9 2.2-.2-.3-2-5.3-4-11-2-5.8-4.3-11.5-5.1-12.7-2.2-3.4-16.5-38.3-16.5-40.3 0-1.3 9.5-5.1 16.4-6.6 8-1.8 22.6-1.8 29.8-.1zm-40.8 25.4c3.1 7.9 7.2 17.5 9.2 21.3 1.9 3.8 4.7 10.9 6.3 15.7 1.6 4.8 3.2 9.6 3.6 10.7 1.3 3.9-2.9-4.1-6.3-12-13-30.2-19.2-46.1-19.2-49.3 0-2.5.5-1.4 6.4 13.6zm-4.6-3.3c5.8 14.7 12.6 31.3 17.2 41.5 2.8 6.3 5.4 12 5.6 12.6.3.7.1 1.5-.5 1.9-.6.3-1.1 0-1.1-.7 0-1.4-3.1-8.8-13.9-33.7-6-13.7-10.1-24.8-10.1-26.9 0-1.2 1 .6 2.8 5.3zm-.3 8.5c2.3 5.8 5.9 14.3 8 19 2 4.7 5.4 13 7.6 18.5 2.2 5.5 4.4 11 4.9 12.2 1.2 2.9 2.5 2.9 18-.1 18.7-3.7 28-4.2 39.4-2.1l9.5 1.7 5.8-3.6c6.5-4 18.1-8.8 26.9-11.1 6.5-1.8 26.2-3.2 29-2.1 3 1.2-.4 2.6-6.2 2.6-10.8 0-36 6.8-48.4 13-2.8 1.4-7.2 1.8-23 2.3-15.4.4-22.5 1.1-33.5 3.3-7.7 1.5-14.8 2.7-15.8 2.8-1.3.1-2.6-2-5.1-7.9-1.8-4.4-4.6-10.9-6-14.5-1.5-3.6-4.5-10.3-6.6-15-6.1-13.6-12-27.9-12-29.1 0-.6.7-.9 1.6-.7.9.2 3.3 4.5 5.9 10.8zm-3.5 7.1c1.2 3.6 1.2 4.4-.5 7.2-3.7 6.4-24.5 35.5-25.8 36-.7.2-3.9 0-7-.5-5.2-.9-5.7-1.2-4.4-2.7.7-.9 8.9-11.2 18.1-22.9 9.2-11.6 17.1-21.2 17.5-21.2.4 0 1.4 1.8 2.1 4.1zm148.4 11.1l2.6 3.3-10.8.6c-11.8.7-20.8 3.3-35 9.9-12.5 5.9-8.7 2.8 5.1-4.2 11-5.5 29.5-12.5 33.9-12.7.9-.1 2.8 1.4 4.2 3.1zM197.8 208c3.8 9.1 7.2 17.3 7.5 18.2.8 2.3 2.9 2.2 14.6-.2 13-2.6 23.1-3.6 23.1-2.1s5.6 4.9 10.3 6.2c5.4 1.4 11-.3 14.4-4.6 1.7-2.1 3.7-3.5 5-3.5 1.3 0 5.3-1.1 8.9-2.5 3.7-1.4 6.8-2.4 7-2.2.2.1-2.7 4.1-6.4 8.8-3.7 4.6-7.4 9.6-8.3 10.9-1.5 2.4-1.7 2.4-8 1.2-7.5-1.3-23.2-3.4-44.4-5.7-9.4-1-21.9-3.3-33.6-6.2l-18.6-4.5 6.1-9.4c3.3-5.1 7.9-12.2 10.1-15.8 2.2-3.6 4.3-6.2 4.6-5.8.4.4 3.9 8.1 7.7 17.2zm137.6-15.2c.3.5-4.3 1.4-10.2 2.1-15.7 1.9-27.8 5.3-38.2 10.7-5 2.5-8.9 4.8-8.7 5 .2.2 3.9-1.4 8.3-3.6 4.3-2.1 11.9-5.1 16.7-6.4 8.9-2.6 30.1-5.5 31.3-4.4 1.7 1.8-1.4 2.8-8.6 2.8-15.3 0-31.4 4.9-48.8 14.9-3.1 1.8-3.7 1.8-9.5.4-10.7-2.6-34.6-.7-54.2 4.3-5.7 1.4-.9-2.3 5.8-4.5 16.4-5.4 31.7-6.5 44.7-3.1 7.7 2 10.1 2.1 5.3.2-13.4-5.2-37.4-4.4-51.8 1.8-4.8 2-6 1.2-2.2-1.5 3.6-2.5 14.4-5.5 23.8-6.5 10.2-1 20.9.1 29.4 3.1l6.1 2.1 12-6c12.8-6.4 22.2-9.7 31.9-11.1 8-1.1 16.3-1.3 16.9-.3zm-24.6 19.4c-1.4 1.8-6.2 8.7-10.8 15.3-12.4 17.7-22 30.5-23 30.5-.5 0-3.9-.6-7.7-1.4-3.7-.8-14.9-2.6-24.8-4.1-9.9-1.4-24.3-3.7-32-5-7.7-1.3-19.6-3.3-26.3-4.5-6.8-1.1-13.2-2.5-14.2-3-1.2-.6-2-3-2.7-8.2-.6-4-.9-7.5-.7-7.6.3-.4 8.7 1.5 22.4 5.1 9 2.4 17.3 3.6 47.5 7.2 7.2.8 17.6 2.3 23.2 3.1l10.2 1.7 1.3 6.1c.7 3.3 1.8 6.1 2.5 6.1.6 0 3.5-3.2 6.3-7 2.9-3.9 7.4-9.5 10-12.5 2.6-3 7.5-9.6 11-14.5 3.4-5 6.8-9.3 7.4-9.7 2.5-1.7 2.7-.6.4 2.4zm-8.5 5c-20.2 26.5-26.2 33.7-26.7 32-2.4-8.1-2.4-8 8.4-22 9.1-11.7 12-14.8 12-12.6 0 .4-4.2 5.9-9.3 12.3-5.2 6.4-9.7 12.3-10.1 13.1-1.3 2.6 7.3-7.1 15.6-17.8 4.4-5.6 8.4-10.2 8.9-10.2 1.6 0-.4 2.9-12.5 17.4-6.4 7.7-11.6 14.4-11.6 15 0 1.3 1.4-.2 8.5-8.9 3.1-3.9 8.8-10.9 12.7-15.8 8-9.9 11.4-11.9 4.1-2.5zm-151 3.3c5.4.8 5.9 1.3 8.2 8.5 1 3 2 6.1 2.3 6.9.4 1.1-.3 1.2-3.3.7-2.1-.4-5.6-1.4-7.6-2.3-3.3-1.3-4-2.1-5.4-6.8-1.9-6.6-1.9-8.9-.1-8.2.7.3 3.4.8 5.9 1.2zm112.9 4.5c-3.9 3.6-8 3.9-14.6 1-7.3-3.1-5.8-4 6.7-4l11.2.1-3.3 2.9z"/><path d="M277.3 122.9c-8.7 3-15 6.7-22.3 13.1-6.8 6-4.3 5.7 3.1-.4 3.5-2.9 8.2-6.2 10.4-7.3 5.3-2.7 16.4-6.3 22.3-7.3l4.7-.8h-5c-3-.1-8.2 1-13.2 2.7zM286.5 130.9c-12.1 4.2-16.4 6.4-23.1 11.4-6.7 5.1-9.3 7.7-7.6 7.7.6 0 3.2-1.8 5.7-4 7.1-6.1 25.2-14.5 34.2-15.7 2.4-.3 4.3-1 4.3-1.4 0-1.7-5.5-.9-13.5 2zM297 136.5c-13.5 3.9-26.9 11.3-33 18.2-3.6 4.1-4.8 6.3-3.6 6.3.3 0 2.8-2.5 5.7-5.5 5.9-6.3 20.4-14.3 30.9-17.1 6.7-1.8 9.9-3.5 6.5-3.3-1.1 0-4 .7-6.5 1.4zM300 146c-9.3 1.6-23.8 9.8-30.9 17.6-5.5 5.9-4.5 7.1 1.1 1.4 7.9-8 23.1-16.3 31.9-17.5 2.7-.4 4.9-1.1 4.9-1.6 0-1-.6-1-7 .1zM301 157.4c-8.8 3.3-32.9 18.1-33.9 20.9-.6 1.7 2.2.2 11.6-6.1 13.5-9.1 21.9-13.2 28.6-13.9 3.2-.3 6-1 6.3-1.4.8-1.4-8.7-.9-12.6.5zM298.9 169.8c-12.3 5-21.9 10.4-25.8 14.6-4 4.2-1.8 3.9 3.2-.4 6.6-5.8 31.1-17 37.4-17 1 0 2.5-.5 3.3-1 1.1-.7.4-1-2.5-.9-2.4 0-8.7 1.9-15.6 4.7zM314.3 172.5c-6.5 1.8-34.1 15-37 17.8-3.5 3.1-2.7 4.1 1 1.3 4.6-3.5 32-16.4 37.5-17.7 2.6-.7 5.6-1.5 6.7-2 3.5-1.4-2.3-1-8.2.6zM206.3 144.5c-3.5.8-7.3 2.1-8.5 3l-2.3 1.7 2.5-.6c1.4-.3 5.7-1.3 9.5-2.2 6.9-1.6 15.9-1.5 27.5.2 3.1.4 4.2.3 3.5-.4-1.3-1.3-13.9-3.2-20.7-3.1-2.9 0-8.1.7-11.5 1.4zM219.5 152.7c-6.3.8-17.7 3.3-19.3 4.3-2.5 1.4-.2 1.2 7.5-.7 4.5-1.1 11.4-1.7 20.5-1.7 7.6-.1 13.8-.4 13.8-.7 0-1.6-13.6-2.4-22.5-1.2zM213.5 162.7c-4.1.5-12.7 3.4-12.1 4 .2.3 3.5-.3 7.3-1.2 4.7-1.2 11.3-1.8 21.5-1.9 8 0 14.4-.4 14.1-.9-.4-.7-25.2-.7-30.8 0zM214.7 172.4c-2.6.7-5 1.5-5.3 1.8-.3.3.2 2.3 1.1 4.4.9 2.2 2.8 7 4.2 10.9 1.4 3.8 2.9 7.4 3.3 7.8.4.5 3.1.1 6.1-.7 2.9-.9 6.7-1.6 8.5-1.6 1.8 0 3.5-.4 3.8-.9.3-.5-1.3-5.9-3.5-12l-4.1-11.1-4.7.1c-2.5 0-6.7.6-9.4 1.3zm16.1 8.8c1.6 4.6 3.3 9.1 3.7 10 .6 1.5.2 1.8-2.4 1.8-1.6 0-5.1.7-7.7 1.6-2.5.8-5 1.2-5.4.7-.4-.4-1.9-4.4-3.4-8.8-1.6-4.4-3.2-8.4-3.7-9-.5-.5-.9-1.2-.9-1.7 0-1.2 6-2.6 11.6-2.7l5.1-.1 3.1 8.2zM235.1 171.4c.2.2 3.9.6 8.2 1 5.4.5 7.7.4 7.2-.4-.3-.5-4-1-8.2-1-4.2 0-7.4.2-7.2.4zM239.2 178.9c-.8.5 1.8.8 6.2.7 4.2-.1 7.6-.4 7.6-.9 0-1-12.2-.9-13.8.2zM240.6 186.9c-.4.5 2.4.9 6.3.9 3.8 0 7.9.3 9 .7 1.2.3 2.1.2 2.1-.3 0-1.9-16.3-3.1-17.4-1.3zM246.5 191.7c-5.5.8-5.5 2.6 0 2 2.8-.3 7.1-.2 9.8.2 5.1.8 6.7-.4 1.7-1.3-5.6-1.1-8.5-1.3-11.5-.9zM256.5 245.4c-2 1.5-2 1.5 0 3.5 1.1 1.1 3.4 2.3 5.2 2.7 2.6.5 3.3.2 4.3-1.6s.9-2.5-.2-3.6c-2.2-2.2-7-2.7-9.3-1zM317.5 276.9c-4.6 1.1-8.1 3.8-9.9 7.6-2 4.1-2 5.6-.2 10 2.3 5.5 6.8 7.7 15 7.3 6.2-.3 7.1-.7 9.7-3.6 1.9-2.1 2.9-4.3 2.9-6.3v-3l-6.7.3c-5.5.2-6.8.6-7.1 2-.3 1.5.4 1.8 4.7 1.8 2.8 0 5.1.4 5.1.9 0 2.9-8.3 5.4-13.4 4-4.5-1.2-6.8-4-6.9-8.5-.2-6.9 8.2-11.1 15.8-8 3.4 1.4 4.1 1.5 5.3.2 1.3-1.2 1.1-1.6-1.4-2.9-3.8-1.9-9.2-2.7-12.9-1.8zM167 289.5V302h10c9.3 0 10-.1 10-2 0-1.8-.7-2-8-2h-8v-7h7c6.3 0 7-.2 7-2s-.7-2-7-2h-7v-7h8c6.4 0 8-.3 8-1.5s-1.8-1.5-10-1.5h-10v12.5zM195 289.6v12.6l9.6-.4 9.6-.3 3.4-3.7c2.7-3 3.4-4.6 3.4-7.8 0-9.5-4.7-13-17.5-13H195v12.6zm19.7-6.1c3.1 3.6 3.1 8.8-.2 12-2.1 2.2-3.3 2.5-9 2.5H199V279.7l6.7.6c5.7.4 7.1.9 9 3.2zM228 285c0 12.3 3.6 17 12.9 17 8 0 12.1-6.4 12.1-18.8 0-5.5-.2-6.2-2-6.2s-2 .7-2 8-.3 8.3-2.5 10.5c-3.5 3.6-9.6 3.5-12.4-.1-1.7-2.2-2.1-4.1-2.1-10.5 0-7.2-.2-7.9-2-7.9s-2 .7-2 8zM275 289.5c0 11.7.1 12.5 1.9 12.5 1.6 0 2-.8 2.3-4.2.2-3.1 1-4.6 3.1-6.2l2.9-2.1 2.1 2.5c1.2 1.4 3.6 4.3 5.2 6.4 2.2 2.7 3.7 3.7 5.3 3.4 2-.3 1.8-.8-3.3-7.2-3-3.8-5.5-7.2-5.5-7.7 0-.4 2.5-2.7 5.5-5.1 5.3-4.1 5.4-4.3 3-4.6-2-.3-4.4 1.1-10 5.7-4 3.4-7.6 6.1-7.9 6.1-.3 0-.6-2.7-.6-6 0-5.3-.2-6-2-6-1.9 0-2 .7-2 12.5zM154.2 316.7c-3.4 1.4-3.3 8.2.2 10.5 2 1.4 6.3.8 7.9-1 4.8-5.3-1.2-12.3-8.1-9.5zm7.2 3.5c1.5 2.4-.3 5.2-3.7 5.6-3.3.4-5.3-2.8-3.7-5.9 1.4-2.5 5.8-2.3 7.4.3zM171 322c0 6.8 1.7 8.2 2.2 1.8l.3-4.2 2.8 4.2c1.5 2.3 3.2 4.2 3.7 4.2.6 0 1-2.7 1-6s-.4-6-1-6c-.5 0-1 1.7-1 3.7l-.1 3.8-3-3.8c-1.7-2-3.5-3.7-4-3.7s-.9 2.7-.9 6zM189 322v6h3.5c1.9 0 3.5-.5 3.5-1 0-.6-1.1-1-2.5-1-2.3 0-2.5-.3-2.5-5 0-2.8-.4-5-1-5s-1 2.7-1 6zM203 322c0 3.3.4 6 1 6s1-2.7 1-6-.4-6-1-6-1 2.7-1 6zM212 322c0 6.8 1.7 8.2 2.2 1.7l.3-4.2 2.9 4.2c4.1 6.1 5.6 5.7 5.6-1.7 0-6.8-1.7-8.2-2.2-1.8l-.3 4.3-3-4.2c-4.2-6-5.5-5.6-5.5 1.7zM230 322v6h4.5c2.5 0 4.5-.5 4.5-1 0-.6-1.6-1-3.5-1-2.4 0-3.5-.5-3.5-1.5s1-1.5 3-1.5c1.7 0 3-.5 3-1 0-.6-1.3-1-3-1-2 0-3-.5-3-1.5s1.1-1.5 3.5-1.5c1.9 0 3.5-.5 3.5-1 0-.6-2-1-4.5-1H230v6zM255.7 317.8c-3.8 4.2-.6 10.7 4.9 10 3.8-.4 4.1-2.3.3-2.3-1.9 0-3.6-.7-4.3-1.8-1.7-2.6.5-5.2 4.3-5.2 3.9 0 3.5-1.9-.5-2.3-2-.2-3.6.4-4.7 1.6zM273.2 316.7c-3.4 1.4-3.3 8.2.2 10.5 2 1.4 6.3.8 7.9-1 4.8-5.3-1.2-12.3-8.1-9.5zm7.2 3.5c1.5 2.4-.3 5.2-3.7 5.6-3.3.4-5.3-2.8-3.7-5.9 1.4-2.5 5.8-2.3 7.4.3zM290 320.8c0 5.4 1.2 7.2 5 7.2s5-1.8 5-7.2c0-6.2-1.8-6.3-2.2-.1-.3 4.4-.5 4.8-2.8 4.8s-2.5-.4-2.8-4.8c-.4-6.2-2.2-6.1-2.2.1zM307 321.9c0 5.9 1.2 8.1 2.3 4.1.3-1.1 1.2-2 2.1-2 .8 0 2 .9 2.6 2 .6 1.1 1.5 2 2.1 2 .6 0 .6-.7-.1-2-.8-1.4-.7-2.5.2-4 2-3.1-.1-5.4-5.1-5.8l-4.1-.3v6zm8-1.9c0 1.6-.7 2-3 2s-3-.4-3-2 .7-2 3-2 3 .4 3 2zM325.3 316.7c-2.5.9-1.4 4.4 1.7 5.6 4.1 1.6 4.1 4.2-.1 3.3-2.2-.4-2.9-.2-2.7.7.6 1.7 5.6 2.1 7.4.6 2.3-1.9 1.6-3.8-2.1-5.6-4.3-2-4.6-3.7-.5-3.1 2 .3 3 0 3-.9 0-1.3-4.1-1.7-6.7-.6zM339 322v6h4.5c2.5 0 4.5-.5 4.5-1 0-.6-1.6-1-3.5-1-2.4 0-3.5-.5-3.5-1.5s1-1.5 3-1.5c1.7 0 3-.5 3-1 0-.6-1.3-1-3-1-2 0-3-.5-3-1.5s1.1-1.5 3.5-1.5c1.9 0 3.5-.5 3.5-1 0-.6-2-1-4.5-1H339v6z"/></svg>