<?xml version="1.0" standalone="no"?>
<!DOCTYPE svg PUBLIC "-//W3C//DTD SVG 20010904//EN"
 "http://www.w3.org/TR/2001/REC-SVG-20010904/DTD/svg10.dtd">
<svg version="1.0" xmlns="http://www.w3.org/2000/svg"
 width="500.000000pt" height="500.000000pt" viewBox="0 0 500.000000 500.000000"
 preserveAspectRatio="xMidYMid meet">

<g transform="translate(0.000000,500.000000) scale(0.100000,-0.100000)"
fill="#000000" stroke="none">
<path d="M2814 3896 c-85 -16 -136 -38 -229 -98 -67 -44 -149 -121 -172 -162
-9 -17 -13 -17 -49 -5 -26 9 -87 14 -179 14 -117 0 -151 -4 -211 -22 -93 -30
-114 -47 -125 -107 -10 -56 -24 -76 -50 -76 -28 0 -30 -14 -12 -69 12 -38 13
-57 6 -74 -6 -12 -62 -84 -124 -161 -63 -76 -129 -159 -148 -185 -19 -25 -49
-64 -68 -85 -20 -24 -33 -50 -33 -67 0 -29 26 -138 35 -147 9 -9 327 -92 410
-107 77 -14 428 -71 490 -80 17 -2 112 -18 212 -36 100 -17 193 -29 206 -25
23 5 119 131 302 394 43 62 86 117 94 121 9 5 60 12 113 16 53 4 104 12 112
18 14 11 14 15 1 41 -8 15 -15 40 -15 55 0 23 -13 49 -52 103 -11 15 -9 20 9
33 21 15 21 15 -51 157 -40 79 -93 179 -119 224 -25 45 -66 128 -91 185 -73
166 -63 154 -131 156 -33 1 -92 -4 -131 -11z m221 -111 c22 -56 75 -164 117
-240 143 -264 179 -338 171 -346 -4 -4 -69 -26 -143 -50 -142 -45 -288 -115
-379 -182 -41 -30 -56 -37 -59 -26 -3 8 -45 93 -94 189 -50 96 -106 213 -124
260 -19 47 -50 113 -69 148 -19 34 -35 67 -35 73 0 6 26 37 57 70 56 59 163
133 234 163 50 21 184 45 238 43 l44 -2 42 -100z m-703 -169 c31 -8 61 -17 67
-21 15 -9 63 -105 102 -202 17 -43 73 -161 125 -262 52 -101 94 -187 94 -191
0 -4 -18 -1 -40 6 -120 42 -315 35 -465 -15 -47 -16 -87 -26 -89 -22 -2 3 -20
53 -40 110 -20 58 -43 115 -51 127 -22 34 -165 383 -165 403 0 13 95 51 164
66 80 18 226 18 298 1z m-408 -254 c31 -79 72 -175 92 -213 19 -38 47 -109 63
-157 16 -48 32 -96 36 -107 13 -39 -29 41 -63 120 -130 302 -192 461 -192 493
0 25 5 14 64 -136z m-46 33 c58 -147 126 -313 172 -415 28 -63 54 -120 56
-126 3 -7 1 -15 -5 -19 -6 -3 -11 0 -11 7 0 14 -31 88 -139 337 -60 137 -101
248 -101 269 0 12 10 -6 28 -53z m-3 -85 c23 -58 59 -143 80 -190 20 -47 54
-130 76 -185 22 -55 44 -110 49 -122 12 -29 25 -29 180 1 187 37 280 42 394
21 l95 -17 58 36 c65 40 181 88 269 111 65 18 262 32 290 21 30 -12 -4 -26
-62 -26 -108 0 -360 -68 -484 -130 -28 -14 -72 -18 -230 -23 -154 -4 -225 -11
-335 -33 -77 -15 -148 -27 -158 -28 -13 -1 -26 20 -51 79 -18 44 -46 109 -60
145 -15 36 -45 103 -66 150 -61 136 -120 279 -120 291 0 6 7 9 16 7 9 -2 33
-45 59 -108z m-35 -71 c12 -36 12 -44 -5 -72 -37 -64 -245 -355 -258 -360 -7
-2 -39 0 -70 5 -52 9 -57 12 -44 27 7 9 89 112 181 229 92 116 171 212 175
212 4 0 14 -18 21 -41z m1484 -111 l26 -33 -108 -6 c-118 -7 -208 -33 -350
-99 -125 -59 -87 -28 51 42 110 55 295 125 339 127 9 1 28 -14 42 -31z m-1346
-208 c38 -91 72 -173 75 -182 8 -23 29 -22 146 2 130 26 231 36 231 21 0 -15
56 -49 103 -62 54 -14 110 3 144 46 17 21 37 35 50 35 13 0 53 11 89 25 37 14
68 24 70 22 2 -1 -27 -41 -64 -88 -37 -46 -74 -96 -83 -109 -15 -24 -17 -24
-80 -12 -75 13 -232 34 -444 57 -94 10 -219 33 -336 62 l-186 45 61 94 c33 51
79 122 101 158 22 36 43 62 46 58 4 -4 39 -81 77 -172z m1376 152 c3 -5 -43
-14 -102 -21 -157 -19 -278 -53 -382 -107 -50 -25 -89 -48 -87 -50 2 -2 39 14
83 36 43 21 119 51 167 64 89 26 301 55 313 44 17 -18 -14 -28 -86 -28 -153 0
-314 -49 -488 -149 -31 -18 -37 -18 -95 -4 -107 26 -346 7 -542 -43 -57 -14
-9 23 58 45 164 54 317 65 447 31 77 -20 101 -21 53 -2 -134 52 -374 44 -518
-18 -48 -20 -60 -12 -22 15 36 25 144 55 238 65 102 10 209 -1 294 -31 l61
-21 120 60 c128 64 222 97 319 111 80 11 163 13 169 3z m-246 -194 c-14 -18
-62 -87 -108 -153 -124 -177 -220 -305 -230 -305 -5 0 -39 6 -77 14 -37 8
-149 26 -248 41 -99 14 -243 37 -320 50 -77 13 -196 33 -263 45 -68 11 -132
25 -142 30 -12 6 -20 30 -27 82 -6 40 -9 75 -7 76 3 4 87 -15 224 -51 90 -24
173 -36 475 -72 72 -8 176 -23 232 -31 l102 -17 13 -61 c7 -33 18 -61 25 -61
6 0 35 32 63 70 29 39 74 95 100 125 26 30 75 96 110 145 34 50 68 93 74 97
25 17 27 6 4 -24z m-85 -50 c-202 -265 -262 -337 -267 -320 -24 81 -24 80 84
220 91 117 120 148 120 126 0 -4 -42 -59 -93 -123 -52 -64 -97 -123 -101 -131
-13 -26 73 71 156 178 44 56 84 102 89 102 16 0 -4 -29 -125 -174 -64 -77
-116 -144 -116 -150 0 -13 14 2 85 89 31 39 88 109 127 158 80 99 114 119 41
25z m-1510 -33 c54 -8 59 -13 82 -85 10 -30 20 -61 23 -69 4 -11 -3 -12 -33
-7 -21 4 -56 14 -76 23 -33 13 -40 21 -54 68 -19 66 -19 89 -1 82 7 -3 34 -8
59 -12z m1129 -45 c-39 -36 -80 -39 -146 -10 -73 31 -58 40 67 40 l112 -1 -33
-29z"/>
<path d="M2773 3771 c-87 -30 -150 -67 -223 -131 -68 -60 -43 -57 31 4 35 29
82 62 104 73 53 27 164 63 223 73 l47 8 -50 0 c-30 1 -82 -10 -132 -27z"/>
<path d="M2865 3691 c-121 -42 -164 -64 -231 -114 -67 -51 -93 -77 -76 -77 6
0 32 18 57 40 71 61 252 145 342 157 24 3 43 10 43 14 0 17 -55 9 -135 -20z"/>
<path d="M2970 3635 c-135 -39 -269 -113 -330 -182 -36 -41 -48 -63 -36 -63 3
0 28 25 57 55 59 63 204 143 309 171 67 18 99 35 65 33 -11 0 -40 -7 -65 -14z"/>
<path d="M3000 3540 c-93 -16 -238 -98 -309 -176 -55 -59 -45 -71 11 -14 79
80 231 163 319 175 27 4 49 11 49 16 0 10 -6 10 -70 -1z"/>
<path d="M3010 3426 c-88 -33 -329 -181 -339 -209 -6 -17 22 -2 116 61 135 91
219 132 286 139 32 3 60 10 63 14 8 14 -87 9 -126 -5z"/>
<path d="M2989 3302 c-123 -50 -219 -104 -258 -146 -40 -42 -18 -39 32 4 66
58 311 170 374 170 10 0 25 5 33 10 11 7 4 10 -25 9 -24 0 -87 -19 -156 -47z"/>
<path d="M3143 3275 c-65 -18 -341 -150 -370 -178 -35 -31 -27 -41 10 -13 46
35 320 164 375 177 26 7 56 15 67 20 35 14 -23 10 -82 -6z"/>
<path d="M2063 3555 c-35 -8 -73 -21 -85 -30 l-23 -17 25 6 c14 3 57 13 95 22
69 16 159 15 275 -2 31 -4 42 -3 35 4 -13 13 -139 32 -207 31 -29 0 -81 -7
-115 -14z"/>
<path d="M2195 3473 c-63 -8 -177 -33 -193 -43 -25 -14 -2 -12 75 7 45 11 114
17 205 17 76 1 138 4 138 7 0 16 -136 24 -225 12z"/>
<path d="M2135 3373 c-41 -5 -127 -34 -121 -40 2 -3 35 3 73 12 47 12 113 18
215 19 80 0 144 4 141 9 -4 7 -252 7 -308 0z"/>
<path d="M2147 3276 c-26 -7 -50 -15 -53 -18 -3 -3 2 -23 11 -44 9 -22 28 -70
42 -109 14 -38 29 -74 33 -78 4 -5 31 -1 61 7 29 9 67 16 85 16 18 0 35 4 38
9 3 5 -13 59 -35 120 l-41 111 -47 -1 c-25 0 -67 -6 -94 -13z m161 -88 c16
-46 33 -91 37 -100 6 -15 2 -18 -24 -18 -16 0 -51 -7 -77 -16 -25 -8 -50 -12
-54 -7 -4 4 -19 44 -34 88 -16 44 -32 84 -37 90 -5 5 -9 12 -9 17 0 12 60 26
116 27 l51 1 31 -82z"/>
<path d="M2351 3286 c2 -2 39 -6 82 -10 54 -5 77 -4 72 4 -3 5 -40 10 -82 10
-42 0 -74 -2 -72 -4z"/>
<path d="M2392 3211 c-8 -5 18 -8 62 -7 42 1 76 4 76 9 0 10 -122 9 -138 -2z"/>
<path d="M2406 3131 c-4 -5 24 -9 63 -9 38 0 79 -3 90 -7 12 -3 21 -2 21 3 0
19 -163 31 -174 13z"/>
<path d="M2465 3083 c-55 -8 -55 -26 0 -20 28 3 71 2 98 -2 51 -8 67 4 17 13
-56 11 -85 13 -115 9z"/>
<path d="M2565 2546 c-20 -15 -20 -15 0 -35 11 -11 34 -23 52 -27 26 -5 33 -2
43 16 10 18 9 25 -2 36 -22 22 -70 27 -93 10z"/>
<path d="M3175 2231 c-46 -11 -81 -38 -99 -76 -20 -41 -20 -56 -2 -100 23 -55
68 -77 150 -73 62 3 71 7 97 36 19 21 29 43 29 63 l0 30 -67 -3 c-55 -2 -68
-6 -71 -20 -3 -15 4 -18 47 -18 28 0 51 -4 51 -9 0 -29 -83 -54 -134 -40 -45
12 -68 40 -69 85 -2 69 82 111 158 80 34 -14 41 -15 53 -2 13 12 11 16 -14 29
-38 19 -92 27 -129 18z"/>
<path d="M1670 2105 l0 -125 100 0 c93 0 100 1 100 20 0 18 -7 20 -80 20 l-80
0 0 35 0 35 70 0 c63 0 70 2 70 20 0 18 -7 20 -70 20 l-70 0 0 35 0 35 80 0
c64 0 80 3 80 15 0 12 -18 15 -100 15 l-100 0 0 -125z"/>
<path d="M1950 2104 l0 -126 96 4 96 3 34 37 c27 30 34 46 34 78 0 95 -47 130
-175 130 l-85 0 0 -126z m197 61 c31 -36 31 -88 -2 -120 -21 -22 -33 -25 -90
-25 l-65 0 0 91 0 92 67 -6 c57 -4 71 -9 90 -32z"/>
<path d="M2280 2150 c0 -123 36 -170 129 -170 80 0 121 64 121 188 0 55 -2 62
-20 62 -18 0 -20 -7 -20 -80 0 -73 -3 -83 -25 -105 -35 -36 -96 -35 -124 1
-17 22 -21 41 -21 105 0 72 -2 79 -20 79 -18 0 -20 -7 -20 -80z"/>
<path d="M2750 2105 c0 -117 1 -125 19 -125 16 0 20 8 23 42 2 31 10 46 31 62
l29 21 21 -25 c12 -14 36 -43 52 -64 22 -27 37 -37 53 -34 20 3 18 8 -33 72
-30 38 -55 72 -55 77 0 4 25 27 55 51 53 41 54 43 30 46 -20 3 -44 -11 -100
-57 -40 -34 -76 -61 -79 -61 -3 0 -6 27 -6 60 0 53 -2 60 -20 60 -19 0 -20 -7
-20 -125z"/>
<path d="M1542 1833 c-34 -14 -33 -82 2 -105 20 -14 63 -8 79 10 48 53 -12
123 -81 95z m72 -35 c15 -24 -3 -52 -37 -56 -33 -4 -53 28 -37 59 14 25 58 23
74 -3z"/>
<path d="M1710 1780 c0 -68 17 -82 22 -18 l3 42 28 -42 c15 -23 32 -42 37 -42
6 0 10 27 10 60 0 33 -4 60 -10 60 -5 0 -10 -17 -10 -37 l-1 -38 -30 38 c-17
20 -35 37 -40 37 -5 0 -9 -27 -9 -60z"/>
<path d="M1890 1780 l0 -60 35 0 c19 0 35 5 35 10 0 6 -11 10 -25 10 -23 0
-25 3 -25 50 0 28 -4 50 -10 50 -6 0 -10 -27 -10 -60z"/>
<path d="M2030 1780 c0 -33 4 -60 10 -60 6 0 10 27 10 60 0 33 -4 60 -10 60
-6 0 -10 -27 -10 -60z"/>
<path d="M2120 1780 c0 -68 17 -82 22 -17 l3 42 29 -42 c41 -61 56 -57 56 17
0 68 -17 82 -22 18 l-3 -43 -30 42 c-42 60 -55 56 -55 -17z"/>
<path d="M2300 1780 l0 -60 45 0 c25 0 45 5 45 10 0 6 -16 10 -35 10 -24 0
-35 5 -35 15 0 10 10 15 30 15 17 0 30 5 30 10 0 6 -13 10 -30 10 -20 0 -30 5
-30 15 0 10 11 15 35 15 19 0 35 5 35 10 0 6 -20 10 -45 10 l-45 0 0 -60z"/>
<path d="M2557 1822 c-38 -42 -6 -107 49 -100 38 4 41 23 3 23 -19 0 -36 7
-43 18 -17 26 5 52 43 52 39 0 35 19 -5 23 -20 2 -36 -4 -47 -16z"/>
<path d="M2732 1833 c-34 -14 -33 -82 2 -105 20 -14 63 -8 79 10 48 53 -12
123 -81 95z m72 -35 c15 -24 -3 -52 -37 -56 -33 -4 -53 28 -37 59 14 25 58 23
74 -3z"/>
<path d="M2900 1792 c0 -54 12 -72 50 -72 38 0 50 18 50 72 0 62 -18 63 -22 1
-3 -44 -5 -48 -28 -48 -23 0 -25 4 -28 48 -4 62 -22 61 -22 -1z"/>
<path d="M3070 1781 c0 -59 12 -81 23 -41 3 11 12 20 21 20 8 0 20 -9 26 -20
6 -11 15 -20 21 -20 6 0 6 7 -1 20 -8 14 -7 25 2 40 20 31 -1 54 -51 58 l-41
3 0 -60z m80 19 c0 -16 -7 -20 -30 -20 -23 0 -30 4 -30 20 0 16 7 20 30 20 23
0 30 -4 30 -20z"/>
<path d="M3253 1833 c-25 -9 -14 -44 17 -56 41 -16 41 -42 -1 -33 -22 4 -29 2
-27 -7 6 -17 56 -21 74 -6 23 19 16 38 -21 56 -43 20 -46 37 -5 31 20 -3 30 0
30 9 0 13 -41 17 -67 6z"/>
<path d="M3390 1780 l0 -60 45 0 c25 0 45 5 45 10 0 6 -16 10 -35 10 -24 0
-35 5 -35 15 0 10 10 15 30 15 17 0 30 5 30 10 0 6 -13 10 -30 10 -20 0 -30 5
-30 15 0 10 11 15 35 15 19 0 35 5 35 10 0 6 -20 10 -45 10 l-45 0 0 -60z"/>
</g>
</svg>
